# xmcd
#
# Track frame offsets: 
#        150
#        13817
#        27300
#        39448
#        52707
#        62905
#        72934
#        83434
#        93837
#        104682
#        119019
#        128634
#        138112
#        147754
#        159260
#        174299
#        183622
#        194398
#        204380
#        217495
#        227159
#        236910
#        247512
#        258622
#        272447
#        280618
#        290385
#
# Disc length: 4013 seconds
#
# Revision: 0
# Processed by: cddbd v1.5.2PL0 Copyright (c) Steve Scherf et al.
# Submitted via: ExactAudioCopyFreeDBPlugin 1.0
#
DISCID=800fab1b
DTITLE=Maddox Brothers and Rose - The Hillbilly Party Band
DYEAR=2011
DGENRE=Hillbilly
TTITLE0=Midnight Train
TTITLE1=Milk Cow Blues
TTITLE2=Move It On Over
TTITLE3=New Mule Skinner Blues
TTITLE4=Honky Tonkin'
TTITLE5=Sally Let Your Bangs Hang Down
TTITLE6=You've Been Talking In Your Sleep
TTITLE7=Dark As The Dungeon
TTITLE8=New Step It Up And Go
TTITLE9=Rock All Our Babies To Sleep
TTITLE10=I'll Fly Away
TTITLE11=Shimmy Shakin' Daddy
TTITLE12=I Wish I Was A Single Girl Again
TTITLE13=Hangover Blues
TTITLE14=Farther Along
TTITLE15=Kiss Me Quick And Go
TTITLE16=Wild Wild Young Men
TTITLE17=False Hearted
TTITLE18=Hey Little Dreamboat
TTITLE19=The Death Of Rock 'n' Roll
TTITLE20=Ugly And Slouchy
TTITLE21=Love Is Strange
TTITLE22=Gotta Travel On
TTITLE23=Tramp On The Street
TTITLE24=Dust On The Bible
TTITLE25=Kissing My Pillow
TTITLE26=Down Down Down
EXTD=
EXTT0=
EXTT1=
EXTT2=
EXTT3=
EXTT4=
EXTT5=
EXTT6=
EXTT7=
EXTT8=
EXTT9=
EXTT10=
EXTT11=
EXTT12=
EXTT13=
EXTT14=
EXTT15=
EXTT16=
EXTT17=
EXTT18=
EXTT19=
EXTT20=
EXTT21=
EXTT22=
EXTT23=
EXTT24=
EXTT25=
EXTT26=
PLAYORDER=
